<svg height="457.14286pt" viewBox="0 0 457.14286 457.14286" width="457.14286pt" xmlns="http://www.w3.org/2000/svg"><path d="m377.949219 288.023438c-.496094 1.328124-1.160157 2.816406-1.65625 4.140624l24.507812 74.523438-34.113281 34.113281-74.359375-24.507812c-1.488281.496093-2.8125 1.160156-4.304687 1.65625l-35.441407 70.050781h-48.023437l-35.441406-70.050781c-1.488282-.496094-2.8125-1.160157-4.304688-1.65625l-74.355469 24.507812-34.117187-34.113281 24.511718-74.523438c-.5-1.324218-1.160156-2.8125-1.65625-4.140624l-70.050781-35.4375v-48.027344l70.050781-35.4375c.496094-1.328125 1.15625-2.816406 1.820313-4.140625l-24.675781-74.523438 34.117187-34.117187 74.355469 24.511718c1.492188-.496093 2.816406-1.160156 4.304688-1.65625l35.441406-70.050781h48.023437l35.441407 70.050781c1.492187.496094 2.816406 1.160157 4.304687 1.65625l74.359375-24.511718 34.113281 34.117187-24.675781 74.523438c.664062 1.324219 1.328125 2.8125 1.824219 4.140625l70.050781 35.4375v48.027344zm0 0" fill="#eb675e"/><path d="m252.585938 457.144531h-48.027344c-3.445313 0-6.601563-1.9375-8.15625-5.019531l-33.222656-65.660156-69.863282 23.027344c-3.253906 1.070312-6.878906.222656-9.324218-2.222657l-34.117188-34.117187c-2.441406-2.4375-3.300781-6.046875-2.21875-9.320313l22.980469-69.886719-65.625-33.203124c-3.074219-1.5625-5.011719-4.714844-5.011719-8.160157v-48.019531c0-3.445312 1.9375-6.597656 5.011719-8.160156l65.757812-33.269532-23.109375-69.800781c-1.089844-3.289062-.230468-6.894531 2.214844-9.339843l34.117188-34.117188c2.445312-2.4375 6.070312-3.269531 9.324218-2.222656l69.863282 23.027344 33.222656-65.660157c1.554687-3.082031 4.710937-5.019531 8.15625-5.019531h48.027344c3.445312 0 6.601562 1.9375 8.15625 5.019531l33.222656 65.667969 69.859375-23.035156c3.273437-1.046875 6.886719-.214844 9.328125 2.222656l34.117187 34.117188c2.445313 2.445312 3.300781 6.050781 2.210938 9.339843l-23.109375 69.800781 65.757812 33.269532c3.078125 1.5625 5.015625 4.714844 5.015625 8.160156v48.019531c0 3.445313-1.9375 6.597657-5.015625 8.160157l-65.628906 33.203124 22.988281 69.886719c1.078125 3.273438.222657 6.882813-2.21875 9.320313l-34.117187 34.117187c-2.441406 2.445313-6.054688 3.292969-9.328125 2.222657l-69.859375-23.035157-33.222656 65.667969c-1.554688 3.082031-4.710938 5.019531-8.15625 5.019531zm-42.40625-18.289062h36.785156l32.902344-65.035157c1.089843-2.160156 2.996093-3.800781 5.292968-4.5625.53125-.167968 1.03125-.382812 1.53125-.589843.90625-.375 1.816406-.738281 2.777344-1.0625 1.855469-.605469 3.867188-.605469 5.722656 0l69.015625 22.75 26.15625-26.160157-22.757812-69.175781c-.65625-1.992187-.605469-4.136719.136719-6.089843l1.640624-4.117188c.808594-2.144531 2.390626-3.910156 4.433594-4.945312l65.039063-32.902344v-36.785156l-65.039063-32.902344c-2.042968-1.035156-3.625-2.804688-4.433594-4.945313-.382812-1.039062-.90625-2.207031-1.421874-3.242187-1.09375-2.160156-1.277344-4.679688-.515626-6.984375l22.90625-69.167969-26.144531-26.152344-69.015625 22.75c-1.855468.609375-3.867187.609375-5.722656 0-.960938-.320312-1.871094-.6875-2.777344-1.0625-.5-.203125-1-.417968-1.53125-.589844-2.296875-.757812-4.203125-2.402343-5.292968-4.5625l-32.902344-65.035156h-36.785156l-32.90625 65.035156c-1.089844 2.160157-2.992188 3.796876-5.292969 4.554688-.523438.179688-1.019531.394531-1.519531.597656-.910157.375-1.824219.742188-2.785157 1.0625-1.859375.609375-3.867187.609375-5.726562 0l-69.011719-22.75-26.148438 26.152344 22.902344 69.167969c.757813 2.296875.582032 4.804687-.5 6.964843-.527344 1.046876-1.054687 2.234376-1.449218 3.277344-.808594 2.144532-2.386719 3.894532-4.421876 4.929688l-65.035156 32.902344v36.785156l65.035156 32.902344c2.035157 1.035156 3.613282 2.785156 4.421876 4.925781l1.667968 4.152343c.726563 1.957032.773438 4.089844.121094 6.074219l-22.75 69.175781 26.15625 26.160157 69.011719-22.75c1.859375-.605469 3.867187-.605469 5.726562 0 .960938.324219 1.875.6875 2.785157 1.0625.5.207031.996093.421875 1.519531.601562 2.300781.757813 4.203125 2.390625 5.292969 4.550781zm0 0" fill="#2a3d4f"/><path d="m352.371094 228.578125c0 68.253906-55.441406 123.695313-123.800782 123.695313-68.257812 0-123.695312-55.441407-123.695312-123.695313 0-68.359375 55.4375-123.800781 123.695312-123.800781 68.359376 0 123.800782 55.441406 123.800782 123.800781zm0 0" fill="#e7e4f3"/><g fill="#2a3d4f"><path d="m228.570312 361.417969c-73.25 0-132.839843-59.585938-132.839843-132.835938 0-73.304687 59.589843-132.949219 132.839843-132.949219 73.304688 0 132.941407 59.644532 132.941407 132.949219 0 73.25-59.636719 132.835938-132.941407 132.835938zm0-247.5c-63.164062 0-114.550781 51.4375-114.550781 114.664062 0 63.160157 51.386719 114.550781 114.550781 114.550781 63.222657 0 114.65625-51.390624 114.65625-114.550781 0-63.226562-51.433593-114.664062-114.65625-114.664062zm0 0"/><path d="m143.601562 201.996094v22.242187h25.710938v-22.242187h6.933594v53.152344h-6.933594v-24.921876h-25.710938v24.921876h-6.863281v-53.152344zm0 0"/><path d="m198.277344 207.832031h-16.164063v-5.835937h39.351563v5.835937h-16.246094v47.316407h-6.941406zm0 0"/><path d="m272.191406 231.808594c-.394531-7.417969-.867187-16.324219-.792968-22.949219h-.234376c-1.8125 6.226563-4.019531 12.855469-6.699218 20.1875l-9.386719 25.785156h-5.203125l-8.597656-25.308593c-2.523438-7.496094-4.652344-14.359376-6.148438-20.664063h-.160156c-.15625 6.625-.554688 15.53125-1.023438 23.5l-1.417968 22.789063h-6.550782l3.710938-53.152344h8.753906l9.066406 25.707031c2.207032 6.542969 4.019532 12.382813 5.359376 17.902344h.238281c1.34375-5.359375 3.238281-11.195313 5.601562-17.902344l9.464844-25.707031h8.75l3.3125 53.152344h-6.703125zm0 0"/><path d="m290.832031 201.996094h6.863281v47.394531h22.710938v5.757813h-29.574219zm0 0"/></g></svg>